Coordinates
version=1
nRows=37
nColumns=38
inDegrees=no

Units are S.I. units (second, meters, Newtons, ...)
If the header above contains a line with 'inDegrees', this indicates whether rotational values are in degrees (yes) or radians (no).

endheader
time	pelvis_tilt	pelvis_list	pelvis_rotation	pelvis_tx	pelvis_ty	pelvis_tz	hip_flexion_r	hip_adduction_r	hip_rotation_r	knee_angle_r	ankle_angle_r	subtalar_angle_r	mtp_angle_r	hip_flexion_l	hip_adduction_l	hip_rotation_l	knee_angle_l	ankle_angle_l	subtalar_angle_l	mtp_angle_l	lumbar_extension	lumbar_bending	lumbar_rotation	arm_flex_r	arm_add_r	arm_rot_r	elbow_flex_r	pro_sup_r	wrist_flex_r	wrist_dev_r	arm_flex_l	arm_add_l	arm_rot_l	elbow_flex_l	pro_sup_l	wrist_flex_l	wrist_dev_l
155	-1.77112	1.54699	-2.5471	0.886754	-0.495301	1.07373	-0.0484801	-0.0969708	-0.178749	0.181307	-0.346503	0	0	0.206275	-0.0954226	-0.107912	0.60998	-0.221087	0	0	-0.507013	-0.142173	0.0572953	-0.236043	-0.311913	-0.472018	2.06306	0.777426	0	0	0.438781	-0.0696461	0.404429	1.73561	1.5708	0	0
155.01	-1.7361	1.54958	-2.57536	0.885373	-0.494571	1.0735	-0.0463818	-0.0964985	-0.18624	0.186627	-0.355279	0	0	0.203052	-0.0996345	-0.11002	0.587876	-0.247995	0	0	-0.50913	-0.144823	0.0587429	-0.248929	-0.303127	-0.5025	2.05833	0.332605	0	0	0.443317	-0.0747264	0.415705	1.74246	1.5708	0	0
155.02	-1.63434	1.55335	-2.67034	0.883572	-0.493989	1.07303	-0.0433598	-0.0955698	-0.193158	0.190602	-0.355273	0	0	0.202073	-0.103512	-0.112148	0.569886	-0.261788	0	0	-0.508934	-0.146253	0.0572067	-0.260257	-0.2988	-0.511289	2.05833	0.331021	0	0	0.445109	-0.0802425	0.423934	1.75034	1.5708	0	0
155.03	-1.51437	1.55747	-2.7836	0.881696	-0.49329	1.07243	-0.040588	-0.0940454	-0.198588	0.195018	-0.356188	0	0	0.201288	-0.108382	-0.115566	0.556671	-0.268713	0	0	-0.508583	-0.147101	0.0552328	-0.270873	-0.295018	-0.519204	2.05755	0.330165	0	0	0.446249	-0.085966	0.431711	1.75861	1.5708	0	0
155.04	-1.35242	1.56212	-2.93925	0.879503	-0.492729	1.07192	-0.0398871	-0.0908015	-0.199322	0.194827	-0.358973	0	0	0.200338	-0.113686	-0.119412	0.548071	-0.271369	0	0	-0.508841	-0.146839	0.052705	-0.279771	-0.292969	-0.526098	2.05531	0.32946	0	0	0.44691	-0.0908997	0.438665	1.76647	1.5708	0	0
155.05	2.67784	1.55761	-0.682179	0.876951	-0.493624	1.07501	-0.0798934	-0.0677415	-0.279125	0.0985551	-0.461033	0	0	0.187834	-0.132391	-0.118918	0.535988	-0.274345	0	0	-0.529558	-0.13127	0.0560891	-0.280199	-0.298458	-0.535307	2.05185	0.326082	0	0	0.452616	-0.0898665	0.444556	1.77422	1.5708	0	0
155.06	2.46905	1.55498	-0.465572	0.874273	-0.493238	1.07448	-0.0815925	-0.0649624	-0.280911	0.0989484	-0.46072	0	0	0.185053	-0.136061	-0.120773	0.532277	-0.270476	0	0	-0.532202	-0.131225	0.0527656	-0.2896	-0.296582	-0.544004	2.04835	0.325822	0	0	0.456076	-0.0943526	0.454383	1.77948	1.5708	0	0
155.07	2.35412	1.55152	-0.342647	0.87157	-0.492691	1.07395	-0.0839025	-0.0620725	-0.279702	0.100487	-0.46102	0	0	0.180387	-0.139764	-0.121472	0.526508	-0.266611	0	0	-0.534995	-0.13167	0.0490661	-0.29882	-0.294214	-0.552251	2.04344	0.32579	0	0	0.460067	-0.0993801	0.464674	1.78362	1.5708	0	0
155.08	2.24775	1.54602	-0.229549	0.868771	-0.492081	1.07365	-0.0875615	-0.0566132	-0.280479	0.0970217	-0.463597	0	0	0.1743	-0.145096	-0.121834	0.516656	-0.263626	0	0	-0.538	-0.130846	0.046005	-0.30663	-0.292989	-0.559097	2.03654	0.325968	0	0	0.463482	-0.104012	0.474294	1.7871	1.5708	0	0
155.09	2.11463	1.54087	-0.0911134	0.865911	-0.491523	1.07307	-0.0923332	-0.050412	-0.28423	0.0840553	-0.466072	0	0	0.169467	-0.149334	-0.12143	0.504192	-0.260459	0	0	-0.539243	-0.131099	0.0432528	-0.31393	-0.292117	-0.565356	2.02848	0.326422	0	0	0.466763	-0.108234	0.484013	1.79014	1.5708	0	0
155.1	2.00767	1.53647	0.0212112	0.862987	-0.491268	1.07215	-0.0911613	-0.0472561	-0.280975	0.0851603	-0.462464	0	0	0.166065	-0.15206	-0.121055	0.493724	-0.2578	0	0	-0.540534	-0.132052	0.0389361	-0.320146	-0.291686	-0.570891	2.02126	0.326966	0	0	0.470289	-0.11245	0.492721	1.79375	1.5708	0	0
155.11	2.06905	1.52958	-0.034926	0.85903	-0.492108	1.0728	-0.070992	-0.0544242	-0.299837	0.15322	-0.431653	0	0	0.153373	-0.152778	-0.11274	0.473972	-0.254293	0	0	-0.552774	-0.12999	0.0347939	-0.322165	-0.295481	-0.578001	2.01198	0.330202	0	0	0.47722	-0.112483	0.502199	1.79622	1.5708	0	0
155.12	2.01157	1.52487	0.0271884	0.856055	-0.49181	1.07197	-0.0707947	-0.0516828	-0.29737	0.153654	-0.433918	0	0	0.148918	-0.155731	-0.113538	0.463116	-0.251673	0	0	-0.556028	-0.131176	0.0299255	-0.326384	-0.294794	-0.582837	2.004	0.331159	0	0	0.481117	-0.116969	0.511139	1.80101	1.5708	0	0
155.13	1.96397	1.51748	0.0794998	0.853409	-0.491419	1.07139	-0.0721726	-0.0442499	-0.294116	0.148553	-0.438185	0	0	0.146657	-0.162499	-0.115902	0.454382	-0.2505	0	0	-0.559341	-0.130497	0.025774	-0.329386	-0.29372	-0.586356	1.99545	0.332258	0	0	0.484797	-0.121676	0.519766	1.80577	1.5708	0	0
155.14	1.78985	1.51383	0.258123	0.852042	-0.489796	1.06892	-0.0924091	-0.0290688	-0.264393	0.0717807	-0.480867	0	0	0.153814	-0.166747	-0.121122	0.449862	-0.245974	0	0	-0.550007	-0.139461	0.0208411	-0.33628	-0.285195	-0.588219	1.98412	0.337982	0	0	0.48821	-0.131399	0.532572	1.81035	1.5708	0	0
155.15	1.76751	1.50708	0.28578	0.849298	-0.489486	1.06852	-0.0917291	-0.0238457	-0.260145	0.0714453	-0.48554	0	0	0.153374	-0.171836	-0.123948	0.442711	-0.245255	0	0	-0.55434	-0.140655	0.0145008	-0.337081	-0.283374	-0.589941	1.97338	0.339418	0	0	0.492335	-0.136192	0.542013	1.81563	1.5708	0	0
155.16	1.75128	1.50047	0.307271	0.846415	-0.489427	1.0683	-0.0935162	-0.0180814	-0.263918	0.0641733	-0.492597	0	0	0.15363	-0.176296	-0.126555	0.437181	-0.244853	0	0	-0.559624	-0.142164	0.00819853	-0.336984	-0.281543	-0.591817	1.96189	0.34104	0	0	0.497334	-0.139946	0.552181	1.82	1.5708	0	0
155.17	1.77451	1.49159	0.289377	0.84352	-0.489638	1.06883	-0.09453	-0.0103586	-0.26543	0.0644868	-0.498963	0	0	0.152634	-0.183848	-0.128164	0.432754	-0.245099	0	0	-0.568709	-0.14095	0.00288998	-0.33439	-0.280309	-0.593209	1.94934	0.342858	0	0	0.503233	-0.142034	0.562018	1.82378	1.5708	0	0
155.18	1.80838	1.47945	0.259904	0.840491	-0.490195	1.07017	-0.0965374	-0.000170106	-0.279716	0.0622205	-0.509774	0	0	0.151287	-0.194391	-0.128021	0.427865	-0.245573	0	0	-0.580664	-0.136293	-0.00108745	-0.328304	-0.280958	-0.593281	1.935	0.34585	0	0	0.508838	-0.142212	0.570866	1.82773	1.5708	0	0
155.19	1.81274	1.46997	0.263	0.836525	-0.490842	1.07094	-0.0918325	0.00437202	-0.269022	0.0766285	-0.514353	0	0	0.152922	-0.199765	-0.124153	0.425019	-0.244156	0	0	-0.589411	-0.132357	-0.00810511	-0.324424	-0.281318	-0.593804	1.92032	0.348563	0	0	0.512638	-0.14109	0.580891	1.83049	1.5708	0	0
155.2	1.74245	1.46628	0.342082	0.833246	-0.490661	1.06947	-0.0967844	0.00790507	-0.278906	0.0476027	-0.532545	0	0	0.162831	-0.198399	-0.120213	0.4271	-0.240035	0	0	-0.585989	-0.137541	-0.0174025	-0.326972	-0.276141	-0.594705	1.90607	0.352307	0	0	0.515014	-0.142168	0.593927	1.83251	1.5708	0	0
155.21	1.65167	1.45745	0.43682	0.830248	-0.490642	1.06827	-0.0912025	0.0110919	-0.277114	0.032473	-0.544831	0	0	0.176242	-0.200128	-0.117462	0.427622	-0.237483	0	0	-0.578892	-0.14051	-0.0236887	-0.326156	-0.273528	-0.592903	1.89023	0.355883	0	0	0.512873	-0.141358	0.602831	1.83523	1.5708	0	0
155.22	1.46333	1.45496	0.627811	0.828444	-0.489716	1.064	-0.0888241	0.00557588	-0.249458	0	-0.560882	0	0	0.198851	-0.189764	-0.117903	0.434169	-0.230129	0	0	-0.556219	-0.160507	-0.0316044	-0.333385	-0.263668	-0.593155	1.87407	0.362264	0	0	0.511915	-0.1442	0.617598	1.83588	1.5708	0	0
155.23	1.46755	1.44776	0.626475	0.825969	-0.489983	1.06397	-0.0868257	0.00905796	-0.249366	0	-0.564978	0	0	0.202093	-0.193875	-0.115985	0.432585	-0.230214	0	0	-0.560617	-0.162943	-0.0353324	-0.329611	-0.261766	-0.593194	1.8602	0.364685	0	0	0.514917	-0.142132	0.626936	1.83908	1.5708	0	0
155.24	1.50627	1.43936	0.59085	0.823411	-0.490407	1.06489	-0.0859039	0.0158517	-0.25364	0	-0.567503	0	0	0.201282	-0.201573	-0.113009	0.428487	-0.23193	0	0	-0.570168	-0.161566	-0.0381087	-0.323256	-0.261381	-0.592659	1.8462	0.368292	0	0	0.518918	-0.139527	0.635297	1.84226	1.5708	0	0
155.25	1.63656	1.42359	0.463637	0.820011	-0.491825	1.069	-0.0763794	0.0289749	-0.281877	0.0388712	-0.568062	0	0	0.189583	-0.221521	-0.107194	0.417892	-0.23691	0	0	-0.595742	-0.147354	-0.0379017	-0.305421	-0.268099	-0.58865	1.82525	0.373407	0	0	0.525338	-0.133464	0.640633	1.84461	1.5708	0	0
155.26	1.63723	1.41405	0.464369	0.817653	-0.492092	1.06934	-0.0704312	0.0340759	-0.280954	0.0450454	-0.570703	0	0	0.191843	-0.228593	-0.105998	0.414309	-0.236303	0	0	-0.600182	-0.149271	-0.0395248	-0.298964	-0.267781	-0.5873	1.80725	0.37593	0	0	0.529572	-0.1312	0.65036	1.84551	1.5708	0	0
155.27	1.63201	1.40726	0.471429	0.815633	-0.49207	1.06904	-0.0633021	0.0365926	-0.264249	0.0559552	-0.572184	0	0	0.19374	-0.233231	-0.10522	0.411481	-0.235318	0	0	-0.603242	-0.154375	-0.0419074	-0.294832	-0.265953	-0.586784	1.79093	0.378335	0	0	0.534835	-0.129991	0.661325	1.84639	1.5708	0	0
155.28	1.6472	1.39811	0.457265	0.813128	-0.49254	1.06979	-0.0644666	0.0434052	-0.27417	0.0482914	-0.580526	0	0	0.192761	-0.240708	-0.104794	0.406511	-0.235308	0	0	-0.611092	-0.154292	-0.0432206	-0.287252	-0.267369	-0.585396	1.775	0.381236	0	0	0.539446	-0.127082	0.669932	1.84721	1.5708	0	0
155.29	1.56447	1.4033	0.543581	0.811211	-0.491157	1.06608	-0.00856021	0.0189236	-0.203297	0.186434	-0.444921	0	0	0.201215	-0.227976	-0.108567	0.408183	-0.224598	0	0	-0.596924	-0.178031	-0.0510863	-0.294865	-0.258695	-0.587202	1.75658	0.399406	0	0	0.544101	-0.129019	0.689095	1.84276	1.5708	0	0
155.3	1.56958	1.39597	0.538949	0.808864	-0.491506	1.06634	-0.00489859	0.0224273	-0.20292	0.188536	-0.446536	0	0	0.201682	-0.232911	-0.109489	0.404595	-0.223247	0	0	-0.602209	-0.180502	-0.0509394	-0.290051	-0.258328	-0.589434	1.74167	0.40211	0	0	0.550797	-0.125807	0.701044	1.8409	1.5708	0	0
155.31	1.23212	1.33114	0.86608	0.805058	-0.487373	1.058	0.100493	0.0213479	-0.185977	0.20868	-0.446842	0	0	0.294386	-0.231805	-0.0988461	0.398074	-0.225315	0	0	-0.308765	-0.0754974	0.288813	-0.564757	-0.108781	-0.919734	1.81161	0.420417	0	0	0.759923	-0.0269142	1.08263	1.46892	1.5708	0	0
155.32	1.24024	1.32436	0.857514	0.802841	-0.487622	1.05806	0.105726	0.0241117	-0.183457	0.211958	-0.451121	0	0	0.294179	-0.235534	-0.0992425	0.391412	-0.224962	0	0	-0.310784	-0.0785588	0.289689	-0.560241	-0.111285	-0.921552	1.79474	0.417297	0	0	0.751599	-0.0187976	1.07784	1.46828	1.5708	0	0
155.33	1.25022	1.31795	0.845583	0.801028	-0.487881	1.05833	0.111536	0.0275619	-0.178888	0.217264	-0.456823	0	0	0.292658	-0.240345	-0.101401	0.384154	-0.225176	0	0	-0.314177	-0.0825585	0.29038	-0.55319	-0.114757	-0.921686	1.77704	0.414338	0	0	0.743958	-0.0118983	1.07232	1.4686	1.5708	0	0
155.34	1.26234	1.31242	0.831161	0.799364	-0.488179	1.0588	0.116723	0.0310697	-0.17398	0.223741	-0.462008	0	0	0.289779	-0.245492	-0.104781	0.37661	-0.226046	0	0	-0.3192	-0.0870289	0.290627	-0.544957	-0.118583	-0.921007	1.7598	0.411332	0	0	0.737652	-0.00567194	1.06715	1.46932	1.5708	0	0
155.35	1.2609	1.30441	0.835143	0.796642	-0.488356	1.05852	0.124997	0.0318494	-0.178138	0.230285	-0.466741	0	0	0.292535	-0.247238	-0.102397	0.36916	-0.227088	0	0	-0.317765	-0.0901469	0.284481	-0.537422	-0.12238	-0.918493	1.74026	0.407062	0	0	0.727414	-0.0011417	1.06182	1.47032	1.5708	0	0
155.36	1.25849	1.29633	0.839887	0.794014	-0.488582	1.05821	0.133535	0.0326487	-0.180619	0.236676	-0.470594	0	0	0.296159	-0.248968	-0.100261	0.362647	-0.227927	0	0	-0.316003	-0.093498	0.277995	-0.529123	-0.126654	-0.915225	1.72024	0.403037	0	0	0.717881	0.00291901	1.05698	1.47127	1.5708	0	0
